<svg width="13" height="15" viewBox="0 0 13 15" fill="none" xmlns="http://www.w3.org/2000/svg">
<path d="M11.2964 5.00988L11.9789 4.33488C12.1202 4.19366 12.1995 4.00211 12.1995 3.80238C12.1995 3.60266 12.1202 3.41111 11.9789 3.26988C11.8377 3.12866 11.6462 3.04931 11.4464 3.04931C11.2467 3.04931 11.0552 3.12866 10.9139 3.26988L10.2389 3.95238C9.18786 3.13927 7.89658 2.69811 6.5677 2.69811C5.23881 2.69811 3.94753 3.13927 2.89645 3.95238L2.21395 3.26238C2.07172 3.12116 1.87922 3.04221 1.67879 3.04291C1.47836 3.04362 1.28642 3.12391 1.1452 3.26613C1.00397 3.40836 0.925023 3.60086 0.925726 3.80128C0.926429 4.00171 1.00672 4.19366 1.14895 4.33488L1.83895 5.01738C1.01621 6.06554 0.569789 7.35989 0.571446 8.69238C0.568997 9.64895 0.795294 10.5922 1.23146 11.4436C1.66763 12.2949 2.30103 13.0296 3.07884 13.5865C3.85664 14.1433 4.75631 14.5061 5.7028 14.6445C6.6493 14.783 7.61518 14.6932 8.51991 14.3826C9.42463 14.0719 10.242 13.5495 10.9038 12.8588C11.5656 12.1681 12.0526 11.3291 12.3243 10.412C12.596 9.49479 12.6445 8.52595 12.4657 7.58624C12.2869 6.64653 11.886 5.76319 11.2964 5.00988V5.00988ZM6.57145 13.1924C5.68143 13.1924 4.8114 12.9285 4.07138 12.434C3.33136 11.9395 2.75458 11.2367 2.41399 10.4145C2.07339 9.59219 1.98428 8.68739 2.15791 7.81448C2.33155 6.94156 2.76013 6.13974 3.38947 5.5104C4.0188 4.88107 4.82063 4.45248 5.69354 4.27885C6.56645 4.10522 7.47125 4.19433 8.29352 4.53492C9.11579 4.87552 9.81859 5.4523 10.3131 6.19232C10.8075 6.93234 11.0714 7.80237 11.0714 8.69238C11.0714 9.88586 10.5973 11.0305 9.75343 11.8744C8.90951 12.7183 7.76492 13.1924 6.57145 13.1924ZM5.07145 1.94238H8.07145C8.27036 1.94238 8.46112 1.86337 8.60178 1.72271C8.74243 1.58206 8.82145 1.3913 8.82145 1.19238C8.82145 0.99347 8.74243 0.802705 8.60178 0.662053C8.46112 0.5214 8.27036 0.442383 8.07145 0.442383H5.07145C4.87253 0.442383 4.68177 0.5214 4.54112 0.662053C4.40046 0.802705 4.32145 0.99347 4.32145 1.19238C4.32145 1.3913 4.40046 1.58206 4.54112 1.72271C4.68177 1.86337 4.87253 1.94238 5.07145 1.94238V1.94238ZM7.32145 6.44238C7.32145 6.24347 7.24243 6.05271 7.10178 5.91205C6.96112 5.7714 6.77036 5.69238 6.57145 5.69238C6.37253 5.69238 6.18177 5.7714 6.04112 5.91205C5.90046 6.05271 5.82145 6.24347 5.82145 6.44238V7.85988C5.65162 8.01178 5.53192 8.21165 5.47819 8.43307C5.42445 8.65448 5.4392 8.88699 5.5205 9.09983C5.6018 9.31268 5.74581 9.49582 5.93347 9.62502C6.12113 9.75423 6.34361 9.82341 6.57145 9.82341C6.79929 9.82341 7.02176 9.75423 7.20942 9.62502C7.39708 9.49582 7.54109 9.31268 7.62239 9.09983C7.70369 8.88699 7.71845 8.65448 7.66471 8.43307C7.61097 8.21165 7.49127 8.01178 7.32145 7.85988V6.44238Z" fill="#28D697"/>
</svg>
