<svg width="13" height="13" viewBox="0 0 13 13" fill="none" xmlns="http://www.w3.org/2000/svg">
<path d="M11.4954 9.8704C11.5713 9.794 11.6246 9.69806 11.6494 9.59322C11.6741 9.48838 11.6694 9.37873 11.6356 9.27643L10.3734 5.48987L12.0234 3.83996C12.3603 3.50302 12.5496 3.04603 12.5496 2.56952C12.5496 2.09302 12.3603 1.63603 12.0234 1.29909C11.6864 0.962148 11.2294 0.772857 10.7529 0.772857C10.2764 0.772857 9.81943 0.962149 9.48249 1.29909L7.83258 2.949L4.04602 1.68682C3.94372 1.65307 3.83407 1.64831 3.72923 1.67307C3.62439 1.69782 3.52845 1.75112 3.45205 1.82706L2.0785 3.20062C2.01074 3.26725 1.96029 3.34943 1.93153 3.44001C1.90278 3.53059 1.89659 3.62682 1.9135 3.72034C1.93079 3.81286 1.9702 3.89982 2.02838 3.9738C2.08656 4.04778 2.16178 4.10658 2.24761 4.14519L5.26696 5.51462L3.72841 7.05317L2.73021 6.54995C2.62061 6.49569 2.49674 6.47725 2.37609 6.49724C2.25544 6.51722 2.14412 6.57462 2.05787 6.66131L1.0473 7.67189C0.99295 7.72669 0.950018 7.79173 0.920988 7.86324C0.891959 7.93475 0.877409 8.01132 0.878182 8.08849C0.878807 8.24152 0.939544 8.38818 1.0473 8.49685L4.82973 12.2793C4.93913 12.3887 5.0875 12.4501 5.24221 12.4501C5.39692 12.4501 5.54529 12.3887 5.65469 12.2793L6.68588 11.2481C6.77258 11.1618 6.82998 11.0505 6.84996 10.9299C6.86995 10.8092 6.85151 10.6853 6.79725 10.5757L6.26928 9.59404L7.8037 8.05962L9.17313 11.079C9.21174 11.1648 9.27055 11.24 9.34453 11.2982C9.41851 11.3564 9.50547 11.3958 9.59799 11.4131C9.6915 11.43 9.78773 11.4238 9.87831 11.395C9.96889 11.3663 10.0511 11.3158 10.1177 11.2481L11.4954 9.8704ZM8.52142 6.81393C8.48295 6.72682 8.42374 6.65045 8.34897 6.5915C8.27419 6.53254 8.18612 6.49278 8.09244 6.4757C7.99989 6.45896 7.90468 6.46485 7.8149 6.49286C7.72512 6.52087 7.64345 6.57018 7.57684 6.63657L5.16796 9.04544C5.08104 9.13249 5.02387 9.24479 5.00461 9.36628C4.98535 9.48777 5.00498 9.61225 5.06072 9.72191L5.55982 10.716L5.23808 11.0377L2.28061 8.08024L2.60234 7.75851L3.59642 8.25761C3.70608 8.31334 3.83055 8.33298 3.95205 8.31372C4.07354 8.29446 4.18584 8.23728 4.27288 8.15036L6.68176 5.74149C6.74815 5.67488 6.79745 5.5932 6.82546 5.50343C6.85347 5.41365 6.85936 5.31843 6.84263 5.22589C6.82554 5.13221 6.78579 5.04414 6.72683 4.96936C6.66787 4.89458 6.5915 4.83538 6.50439 4.79691L3.48917 3.4316L4.01715 2.90363L7.79958 4.16169C7.90208 4.19678 8.01232 4.20263 8.11796 4.17859C8.2236 4.15455 8.32045 4.10157 8.39767 4.02557L10.291 2.1323C10.4091 2.01415 10.5693 1.94777 10.7364 1.94777C10.9035 1.94777 11.0638 2.01415 11.1819 2.1323C11.3001 2.25044 11.3664 2.41069 11.3664 2.57777C11.3664 2.74486 11.3001 2.9051 11.1819 3.02325L9.28863 4.91653C9.21264 4.99375 9.15965 5.0906 9.13561 5.19624C9.11157 5.30188 9.11742 5.41212 9.15251 5.51462L10.4106 9.29705L9.88672 9.8209L8.52142 6.81393Z" fill="#606060"/>
</svg>
